<svg id="Layer_1" enable-background="new 0 0 512 512" height="512" viewBox="0 0 512 512" width="512" xmlns="http://www.w3.org/2000/svg"><g><path d="m82 298.041v-164.082c0-55.206 44.644-99.959 99.716-99.959h-60.716c-55.229 0-100 44.771-100 100v164c0 55.228 44.771 100 100 100h60.716c-55.072 0-99.716-44.753-99.716-99.959z" fill="#6f6f6f"/><path d="m392 418h-272.021c-66.157 0-119.979-53.823-119.979-119.979v-164.021c0-66.168 53.832-120 120-120h272c66.168 0 120 53.832 120 120v164c0 66.168-53.832 120-120 120zm-272-364c-44.112 0-80 35.888-80 80v164.021c0 44.1 35.879 79.979 79.979 79.979h272.021c44.112 0 80-35.888 80-80v-164c0-44.112-35.888-80-80-80zm252 424c0-11.046-8.954-20-20-20h-192c-11.046 0-20 8.954-20 20s8.954 20 20 20h192c11.046 0 20-8.954 20-20z" fill="#515151"/><path d="m352.29 252.85-13.324-7.994c2.612-8.158 4.034-16.843 4.034-25.856s-1.422-17.698-4.034-25.856l13.324-7.994c9.472-5.683 12.543-17.968 6.859-27.44s-17.971-12.542-27.439-6.86l-13.569 8.142c-10.877-10.901-24.695-18.853-40.141-22.593v-17.399c0-11.046-8.954-20-20-20s-20 8.954-20 20v17.399c-15.798 3.826-29.881 12.071-40.868 23.356l-14.842-8.905c-9.469-5.682-21.756-2.612-27.439 6.86-5.684 9.472-2.612 21.757 6.859 27.44l15.004 9.002c-2.409 7.864-3.714 16.206-3.714 24.848s1.305 16.984 3.714 24.848l-15.004 9.002c-9.472 5.683-12.543 17.968-6.86 27.439 3.751 6.25 10.375 9.713 17.169 9.713 3.502 0 7.05-.92 10.271-2.853l14.842-8.905c10.987 11.285 25.07 19.53 40.868 23.356v17.4c0 11.046 8.954 20 20 20s20-8.954 20-20v-17.399c15.446-3.74 29.264-11.692 40.14-22.593l13.57 8.142c3.222 1.933 6.769 2.853 10.271 2.853 6.794 0 13.419-3.463 17.169-9.713 5.683-9.472 2.612-21.757-6.86-27.44zm-94.29 11.15c-24.813 0-45-20.187-45-45s20.187-45 45-45 45 20.187 45 45-20.187 45-45 45z" fill="#D63447"/></g></svg>