<svg id="Layer_1" enable-background="new 0 0 512 512" height="512" viewBox="0 0 512 512" width="512" xmlns="http://www.w3.org/2000/svg"><g><path d="m80 452c0-22.091 17.909-40 40-40h-60c-22.091 0-40 17.909-40 40 0 22.091 17.909 40 40 40h60c-22.091 0-40-17.909-40-40z" fill="#6f6f6f"/><path d="m452 357c-11.046 0-20-8.954-20-20v-28c0-11.046 8.954-20 20-20s20 8.954 20 20v28c0 11.046-8.954 20-20 20zm-372-20v-147c0-44.112 35.888-80 80-80h37c11.046 0 20-8.954 20-20s-8.954-20-20-20h-37c-66.168 0-120 53.832-120 120v147c0 11.046 8.954 20 20 20s20-8.954 20-20zm432 115c0-33.084-26.916-60-60-60h-392c-33.084 0-60 26.916-60 60s26.916 60 60 60h392c33.084 0 60-26.916 60-60zm-60-20c11.028 0 20 8.972 20 20s-8.972 20-20 20h-392c-11.028 0-20-8.972-20-20s8.972-20 20-20z" fill="#515151"/><path d="m267.496 264c-2.577 0-5.175-.498-7.65-1.523-7.474-3.096-12.346-10.389-12.346-18.479l.005-110.807c-.313-35.359 13.286-68.738 38.298-93.991 25.038-25.278 58.313-39.2 93.697-39.2 35.626 0 68.949 13.834 93.829 38.955 24.953 25.194 38.507 58.697 38.165 94.337-.337 35.115-14.301 68.016-39.32 92.64-24.943 24.55-58.011 38.068-93.119 38.068-.042 0-.086 0-.128 0-20.645 0-40.385-4.612-58.659-13.71-12.288-6.118-27.084-3.689-36.818 6.045l-1.808 1.808c-3.826 3.825-8.942 5.857-14.146 5.857zm38.571-57.063c10.872 0 21.831 2.469 32.028 7.546 12.686 6.315 26.43 9.518 40.851 9.518.026-.001.06 0 .088 0 50.517.003 91.979-40.853 92.461-91.092.239-24.884-9.203-48.253-26.586-65.805-17.31-17.479-40.54-27.104-65.409-27.104-24.627 0-47.809 9.713-65.277 27.349-17.466 17.635-26.956 40.917-26.719 65.559 0 .064.001.129.001.193l-.004 76.274c6.051-1.617 12.294-2.438 18.566-2.438z" fill="#D63447"/></g></svg>