<svg id="Layer_1" enable-background="new 0 0 512 512" height="512" viewBox="0 0 512 512" width="512" xmlns="http://www.w3.org/2000/svg"><g><path d="m223.716 492h-60.716c-55.229 0-100-44.772-100-100v-272c0-55.229 44.771-100 100-100h60.716c-55.072 0-99.716 44.753-99.716 99.959v272.083c0 55.205 44.644 99.958 99.716 99.958zm40.451-311c0-17.981 9.127-33.828 23-43.167-8.285-5.577-18.262-8.833-29-8.833-28.719 0-52 23.281-52 52s23.281 52 52 52c10.738 0 20.715-3.257 29-8.833-13.873-9.339-23-25.186-23-43.167z" fill="#6f6f6f"/><path d="m348 512h-184c-66.168 0-120-53.832-120-120v-272c0-66.168 53.832-120 120-120h184c66.168 0 120 53.832 120 120v272c0 66.168-53.832 120-120 120zm-184-472c-44.112 0-80 35.888-80 80v272c0 44.112 35.888 80 80 80h184c44.112 0 80-35.888 80-80v-272c0-44.112-35.888-80-80-80zm94 213c-39.701 0-72-32.299-72-72s32.299-72 72-72 72 32.299 72 72-32.299 72-72 72zm0-104c-17.645 0-32 14.355-32 32s14.355 32 32 32 32-14.355 32-32-14.355-32-32-32z" fill="#515151"/><path d="m336 398.889c-11.046 0-20-8.954-20-20 0-29.163-23.875-52.889-53.22-52.889h-13.56c-29.346 0-53.22 23.726-53.22 52.889 0 11.046-8.954 20-20 20s-20-8.954-20-20c0-51.219 41.818-92.889 93.22-92.889h13.56c51.402 0 93.22 41.67 93.22 92.889 0 11.046-8.954 20-20 20z" fill="#D63447"/></g></svg>