<svg id="Layer_1" enable-background="new 0 0 512 512" height="512" viewBox="0 0 512 512" width="512" xmlns="http://www.w3.org/2000/svg"><g><path d="m80 256c0-120.176 89.826-219.372 206-234.11-9.824-1.247-19.837-1.89-30-1.89-130.339 0-236 105.661-236 236s105.661 236 236 236c10.163 0 20.176-.643 30-1.89-116.174-14.738-206-113.934-206-234.11z" fill="#6f6f6f"/><path d="m492 137c-11.046 0-20-8.954-20-20v-57c0-11.028-8.972-20-20-20h-56c-11.046 0-20-8.954-20-20s8.954-20 20-20h56c33.084 0 60 26.916 60 60v57c0 11.046-8.954 20-20 20zm-314.858 225.142 259-259c7.811-7.811 7.811-20.474 0-28.284s-20.474-7.811-28.284 0l-259 259c-7.811 7.811-7.811 20.474 0 28.284 3.905 3.905 9.023 5.858 14.142 5.858s10.237-1.953 14.142-5.858z" fill="#D63447"/><path d="m336 401c-33.084 0-60-26.916-60-60s26.916-60 60-60 60 26.916 60 60-26.916 60-60 60zm0-80c-11.028 0-20 8.972-20 20s8.972 20 20 20 20-8.972 20-20-8.972-20-20-20zm-160-90c-33.084 0-60-26.916-60-60s26.916-60 60-60 60 26.916 60 60-26.916 60-60 60zm0-80c-11.028 0-20 8.972-20 20s8.972 20 20 20 20-8.972 20-20-8.972-20-20-20zm261.02 286.019c48.351-48.352 74.98-112.639 74.98-181.019 0-21.661-2.714-43.189-8.066-63.985-2.753-10.698-13.66-17.139-24.354-14.384-10.697 2.753-17.137 13.657-14.384 24.354 4.515 17.541 6.804 35.715 6.804 54.015 0 119.103-96.897 216-216 216s-216-96.897-216-216 96.897-216 216-216c18.594 0 37.075 2.373 54.929 7.053 10.687 2.799 21.617-3.591 24.417-14.276s-3.591-21.617-14.276-24.417c-21.162-5.547-43.055-8.36-65.07-8.36-68.38 0-132.667 26.629-181.02 74.98-48.351 48.353-74.98 112.64-74.98 181.02s26.629 132.667 74.98 181.019c48.353 48.352 112.64 74.981 181.02 74.981s132.667-26.629 181.02-74.981z" fill="#515151"/></g></svg>