<svg id="Layer_1" enable-background="new 0 0 512 512" height="512" viewBox="0 0 512 512" width="512" xmlns="http://www.w3.org/2000/svg"><g><path d="m284 482.901c-8.581 5.745-16.898 9.099-28 9.099-29.824 0-54-24.177-54-54v-82c0-29.823 24.176-54 54-54 11.102 0 19.419 3.354 28 9.099-14.47 9.687-24 26.179-24 44.901v82c0 18.721 9.53 35.214 24 44.901zm158-44.901v-175c0-18.721 9.53-35.213 24-44.901-8.581-5.745-16.898-9.099-28-9.099-29.824 0-54 24.176-54 54v175c0 29.823 24.176 54 54 54 11.102 0 19.419-3.354 28-9.099-14.47-9.687-24-26.18-24-44.901zm-364 0v-190c0-18.721 9.53-35.213 24-44.901-8.581-5.744-16.898-9.099-28-9.099-29.823 0-54 24.176-54 54v190c0 29.823 24.177 54 54 54 11.102 0 19.419-3.354 28-9.099-14.47-9.687-24-26.18-24-44.901z" fill="#6f6f6f"/><path d="m74 512c-40.804 0-74-33.196-74-74v-190c0-40.804 33.196-74 74-74s74 33.196 74 74v190c0 40.804-33.196 74-74 74zm0-298c-18.748 0-34 15.252-34 34v190c0 18.748 15.252 34 34 34s34-15.252 34-34v-190c0-18.747-15.252-34-34-34zm182 298c-40.804 0-74-33.196-74-74v-82c0-40.804 33.196-74 74-74s74 33.196 74 74v82c0 40.804-33.196 74-74 74zm0-190c-18.748 0-34 15.252-34 34v82c0 18.748 15.252 34 34 34s34-15.252 34-34v-82c0-18.747-15.252-34-34-34zm182 190c-40.804 0-74-33.196-74-74v-175c0-40.804 33.196-74 74-74s74 33.196 74 74v175c0 40.804-33.196 74-74 74zm0-283c-18.748 0-34 15.252-34 34v175c0 18.748 15.252 34 34 34s34-15.252 34-34v-175c0-18.747-15.252-34-34-34z" fill="#515151"/><path d="m274.913 243.95c-15.255 0-30.582-4.941-43.359-15.046-.357-.283-128.023-116.235-128.023-116.235-11.362-8.631-27.136-8.094-37.888 1.315l-31.578 31.235c-7.854 7.768-20.518 7.698-28.283-.154-7.769-7.854-7.699-20.517.154-28.284 0 0 32.413-32.05 32.648-32.262 25.443-22.883 63.391-24.084 90.231-2.858.357.283 128.022 116.235 128.022 116.235 12.362 9.386 30.012 7.758 40.437-3.827.125-.139.252-.276.381-.411l110.86-116.448c7.616-8 20.275-8.312 28.275-.695 8 7.616 8.312 20.275.695 28.276l-110.68 116.259c-13.726 15.119-32.752 22.899-51.892 22.9zm237.087-129.95v-54c0-33.084-26.916-60-60-60h-54c-11.046 0-20 8.954-20 20s8.954 20 20 20h54c11.028 0 20 8.972 20 20v54c0 11.046 8.954 20 20 20s20-8.954 20-20z" fill="#D63447"/></g></svg>