<svg id="Layer_1" enable-background="new 0 0 512 512" height="512" viewBox="0 0 512 512" width="512" xmlns="http://www.w3.org/2000/svg"><g><path d="m286.913 366.745c-9.794 2.767-20.145 4.255-30.913 4.255-63.513 0-115-51.487-115-115s51.487-115 115-115c10.768 0 21.119 1.488 30.913 4.255-48.409 13.562-83.913 58.005-83.913 110.745s35.504 97.184 83.913 110.745zm-206.913-110.745c0-120.176 89.826-219.372 206-234.11-9.824-1.247-19.837-1.89-30-1.89-130.339 0-236 105.661-236 236s105.661 236 236 236c10.163 0 20.176-.643 30-1.889-116.174-14.739-206-113.935-206-234.111z" fill="#6f6f6f"/><path d="m256 512c-68.38 0-132.667-26.629-181.02-74.98-48.351-48.352-74.98-112.64-74.98-181.02s26.629-132.667 74.98-181.02c48.353-48.351 112.64-74.98 181.02-74.98 82.323 0 160.161 39.735 208.216 106.292 6.465 8.956 4.447 21.457-4.509 27.923-8.954 6.466-21.456 4.447-27.923-4.508-40.555-56.171-106.269-89.707-175.784-89.707-119.103 0-216 96.898-216 216s96.897 216 216 216c69.515 0 135.229-33.536 175.784-89.708 6.467-8.955 18.969-10.974 27.923-4.508 8.956 6.466 10.974 18.967 4.509 27.923-48.055 66.558-125.893 106.293-208.216 106.293zm96.366-162.085c7.685-7.934 7.482-20.596-.451-28.281-7.936-7.685-20.596-7.482-28.281.452-18.06 18.645-42.079 28.914-67.634 28.914-52.383 0-95-42.617-95-95s42.617-95 95-95c25.555 0 49.574 10.269 67.634 28.915 7.685 7.934 20.347 8.136 28.281.452 7.934-7.685 8.136-20.347.451-28.281-25.662-26.495-59.886-41.086-96.366-41.086-74.439 0-135 60.561-135 135s60.561 135 135 135c36.481 0 70.705-14.591 96.366-41.085z" fill="#515151"/><path d="m482.485 276.34c-5.471-5.44-8.485-12.663-8.485-20.34s3.014-14.9 8.485-20.34l23.615-23.476c7.833-7.788 7.871-20.451.083-28.284-7.788-7.835-20.453-7.871-28.284-.084l-23.615 23.477c-8.193 8.145-14.079 17.976-17.335 28.708h-180.949c-11.046 0-20 8.954-20 20s8.954 20 20 20h180.949c3.256 10.732 9.142 20.563 17.335 28.708l23.615 23.476c3.903 3.878 9.001 5.815 14.101 5.815 5.138 0 10.275-1.968 14.184-5.9 7.788-7.833 7.75-20.497-.083-28.284z" fill="#D63447"/></g></svg>